<svg width="900" height="900" fill="none" xmlns="http://www.w3.org/2000/svg"><g clip-path="url(#clip0)" clip-rule="evenodd"><path fill-rule="evenodd" d="M25.828 148.217l17.677 17.677-3.196 3.197-7.496-7.495-17.69 17.69 7.496 7.495-3.197 3.197L1.744 172.3l3.197-3.197 6.694 6.694 17.69-17.69-6.694-6.694 3.197-3.196zm27.304-5.431l6.741 6.74-3.124 3.125-6.741-6.74-21.212.516-.589-.59 4.278-4.278 16.092-.204.204-16.092 4.278-4.278.59.59-.517 21.21zm19.985-6.503l-17.678-17.677 15.358-15.359c5.072-5.071 9.43-5.328 13.06-1.698 3.63 3.63 3.373 7.987-1.699 13.059L69.997 126.77l6.316 6.317-3.196 3.196zm7.543-31.538c-1.367-1.366-3.272-1.205-5.724 1.246l-12.859 12.86 4.478 4.478 12.86-12.86c2.45-2.45 2.612-4.357 1.245-5.724zm18.15 5.844L81.133 92.912l20.623-20.622 3.37 3.37L87.7 93.086l3.653 3.653 16.585-16.584 3.3 3.3-16.585 16.584 3.984 3.983 17.666-17.666 3.37 3.37-20.862 20.863zm20.564-34.14l6.788 6.788-3.196 3.197-17.678-17.678 16.32-16.32c4.47-4.47 8.764-5.416 12.559-1.622 3.347 3.347 2.645 6.925-.797 10.885l11.864 1.288.59.59-3.75 3.749-12.004-1.572-10.696 10.695zm11.62-22.414c-1.25-1.25-2.988-1.113-5.248 1.146L111.926 69l4.101 4.101 13.82-13.82c2.26-2.26 2.396-3.998 1.147-5.247zm24.912-35.896l17.678 17.677-3.197 3.197-7.495-7.495-17.69 17.69 7.495 7.495L149.5 59.9l-17.678-17.677 3.197-3.197 6.694 6.694 17.69-17.69-6.694-6.694 3.196-3.196zm21.62 13.736l-17.678-17.678L163.045 11l17.678 17.678-3.198 3.197z" fill="#9013FE"/><path d="M0 72.493l5.212-26.06 29.833-5.966-1.028 5.142-25.03 5.006-1.07 5.35 23.296-4.658-1.008 5.038L6.91 61.004 4.804 71.532 0 72.492zm34.276-6.855l5.212-26.06 30.99-6.198-.995 4.97-26.185 5.236-1.077 5.386 24.921-4.984-.973 4.864-24.921 4.984-1.175 5.872 26.547-5.31-.994 4.97-31.35 6.27zm43.671-26.613c-.375 1.876 2.213 1.592 11.986.405 11.868-1.44 17.44-1.387 16.266 4.485-.987 4.934-6.633 9.065-18.335 11.405-10.619 2.124-16.178.1-18.32-1.673l3.237-4.05c2.635 1.041 7.226 2.358 16.472.509 7.55-1.51 11.718-3.11 12.093-4.987.376-1.876-2.02-2.03-12.574-.754-12.187 1.47-16.697 1.138-15.613-4.282 1.105-5.525 8.309-9.3 17.916-11.222 8.019-1.604 13.84-1.067 17.203 1.362l-3.23 4.015c-3.642-1.206-8.355-1.564-14.893-.257-6.284 1.257-11.798 2.994-12.208 5.044zm66.995-15.634l-14.916 2.983-4.191 20.952-4.803.96 4.19-20.951-14.917 2.983 1.022-5.107 34.637-6.928-1.022 5.108zm-.108 20.135l5.212-26.06 4.803-.96-5.212 26.059-4.803.96zm29.364-5.873l-4.334.867-11.468-21.89.173-.868 5.418-1.084 9.093 18.162 17.418-23.464 5.417-1.083-.173.868-21.544 28.492zm33.022-31.62l4.479-.897 12.118 21.76-.174.868-5.382 1.077-3.087-5.887-19.143 3.828-5.797 7.664-5.382 1.076.174-.868L207.22 6.032zm5.654 12.644l-4.373-8.298-8.196 10.812 12.569-2.514zm14.489 8.343L232.575.96l4.804-.96-4.19 20.952 23.946-4.79-1.022 5.108-28.75 5.75z" transform="matrix(.83205 -.5547 .83205 .5547 109.05 149.89)" stroke="#9013FE"/><path fill-rule="evenodd" d="M319.775 189.784l-18.031-18.031 3.197-3.198 14.498 14.497 15.94-15.94 3.533 3.535-19.137 19.137zm21.806-21.806l-18.031-18.03 3.197-3.198 18.032 18.03-3.198 3.198zm26.542-26.541l-30.58 1.827 14.376 14.377-3.197 3.197-18.032-18.031 4.207-4.207 30.63-1.78-14.425-14.424 3.197-3.198 18.031 18.031-4.207 4.208zm8.15-8.15l-18.031-18.032 20.628-20.627 3.438 3.438-17.43 17.43 3.726 3.726 16.588-16.588 3.367 3.365-16.59 16.589 4.064 4.063 17.67-17.67 3.439 3.437-20.869 20.868zm34.596-52.483l-9.111-9.064 3.22-3.222 9.233 9.232c5.915 5.914 4.856 13.32-2.26 20.436-7.092 7.092-14.57 8.222-20.483 2.308l-9.232-9.233 3.197-3.197 9.088 9.088c3.75 3.75 8.583 2.428 13.704-2.693 5.12-5.12 6.394-9.905 2.644-13.655zm15.915 1.971l-18.03-18.031 15.363-15.363c5.072-5.073 9.471-5.29 13.174-1.587 3.702 3.703 3.486 8.102-1.587 13.175L423.54 73.134l6.443 6.443-3.198 3.198zm7.31-31.783c-1.395-1.395-3.318-1.25-5.77 1.202L415.46 65.056l4.568 4.568 12.863-12.862c2.452-2.453 2.596-4.376 1.201-5.77z" fill="#9013FE"/><path d="M41.492 41.228l-5.311 26.558-4.803.96 2.252-11.26L7.054 62.8 4.802 74.06 0 75.02l5.311-26.556 4.803-.961L8.103 57.56l26.575-5.315L36.69 42.19l4.802-.96zm21.303 11.513L60.77 62.868l-4.694.939L58.1 53.68 44.89 41.399l.177-.885 6.428-1.286 9.854 9.485 14.627-14.381 6.427-1.286-.177.886-19.43 18.809zm17.87 6.148l5.312-26.558 23.073-4.614c7.619-1.524 10.47.863 9.379 6.316-1.091 5.454-5.173 9.227-12.792 10.751l-18.27 3.654-1.899 9.49-4.802.96zm32.962-23.895c.41-2.054-.88-3.053-4.563-2.317l-19.318 3.864-1.346 6.728 19.318-3.864c3.683-.736 5.498-2.357 5.909-4.411zm5.639 16.175l5.311-26.558 30.981-6.196-1.012 5.064-26.179 5.235-1.098 5.489 24.915-4.983-.991 4.957-24.915 4.983-1.197 5.985 26.54-5.308-1.013 5.063-31.342 6.269zm43.131-18.417l-2.04 10.198-4.802.96 5.311-26.556 24.518-4.904c6.716-1.343 10.149.384 9.009 6.085-1.006 5.028-4.652 7.83-10.29 9.332l5.968 8.29-.177.886-5.633 1.127-5.796-8.631-16.068 3.213zm27.186-13.221c.375-1.877-.792-2.8-4.186-2.12l-20.762 4.152-1.233 6.161 20.763-4.152c3.394-.679 5.043-2.165 5.418-4.041zM236.91 2.145l-5.311 26.557-4.803.96 2.252-11.26-26.575 5.315-2.253 11.26-4.802.961 5.312-26.557 4.802-.96-2.011 10.056 26.575-5.315 2.012-10.057 4.802-.96zm.61 25.373L242.832.96l4.802-.96-5.311 26.557-4.803.96z" transform="matrix(.83205 -.5547 .83205 .5547 407 147.363)" stroke="#9013FE"/><path fill-rule="evenodd" d="M620.064 188.799l-18.031-18.031 19.858-19.859 3.558 3.558-16.66 16.661 3.702 3.703 15.506-15.507 3.486 3.486-15.506 15.507 7.284 7.284-3.197 3.198zm22.815-22.816l-18.031-18.03 20.628-20.629 3.438 3.438-17.43 17.43 3.726 3.727 16.589-16.589 3.366 3.366-16.59 16.589 4.064 4.063 17.67-17.67 3.438 3.437-20.868 20.868zm13.704-39.476c1.298 1.298 3.222-.289 10.386-6.347 8.703-7.357 13.415-10.386 17.478-6.323 3.414 3.414 2.236 8.92-5.553 16.709-7.069 7.068-13.464 8.943-16.781 9.088l-.77-4.136c3.102-.841 8.078-2.596 14.233-8.75 5.025-5.025 7.14-8.247 5.842-9.545-1.298-1.299-3.438-.072-11.18 6.467-8.943 7.549-13.006 9.833-16.756 6.082-3.823-3.822-1.034-9.977 5.36-16.372 5.338-5.337 10.675-8.222 15.58-8.655l.745 4.111c-4.087 1.299-8.342 3.679-12.694 8.03-4.183 4.183-7.308 8.222-5.89 9.64zm42.674-45.896l-9.93 9.93 14.498 14.497-3.198 3.197-14.497-14.497-9.93 9.93-3.533-3.535 23.056-23.056 3.534 3.534zm17.214 11.78l-18.032-18.03 3.198-3.198 18.031 18.031-3.197 3.198zm19.545-19.545l-2.885 2.885-28.417-6.443-.6-.601 3.605-3.607 23.225 5.578-5.578-23.224 3.606-3.606.601.6 6.443 28.418zm.481-36.543l2.982-2.981 28.85 6.01.6.601-3.582 3.582-7.645-1.73-12.742 12.741 1.731 7.646-3.582 3.582-.601-.601-6.01-28.85zm15.603 4.255l-10.794-2.428 2.428 10.794 8.366-8.366zm19.306-3.101l-18.032-18.032 3.198-3.197 14.497 14.497 15.94-15.94 3.534 3.534-19.137 19.138z" fill="#9013FE"/><path d="M769.775 187.784l-18.031-18.031 3.198-3.198 14.497 14.498 15.94-15.94 3.533 3.534-19.137 19.137zm21.806-21.805l-18.031-18.032 3.197-3.197 18.032 18.031-3.198 3.198zm26.542-26.542l-30.581 1.827 14.377 14.377-3.198 3.197-18.03-18.03 4.206-4.208 30.63-1.78-14.426-14.424 3.198-3.198 18.031 18.032-4.207 4.207zm8.15-8.15l-18.031-18.032 20.628-20.627 3.438 3.438-17.43 17.43 3.726 3.726 16.589-16.589 3.365 3.366-16.588 16.59 4.063 4.062 17.67-17.67 3.438 3.437-20.868 20.869zm34.596-52.483l-9.112-9.064 3.222-3.222 9.232 9.232c5.914 5.915 4.856 13.32-2.26 20.436-7.092 7.092-14.57 8.222-20.484 2.308l-9.232-9.232 3.198-3.198 9.088 9.088c3.75 3.75 8.583 2.428 13.703-2.693 5.121-5.12 6.396-9.905 2.645-13.655zm15.916 1.97l-18.032-18.03 15.363-15.363c5.073-5.073 9.472-5.29 13.175-1.587 3.702 3.703 3.486 8.102-1.587 13.175l-12.165 12.165 6.443 6.443-3.197 3.198zm7.308-31.782c-1.394-1.395-3.318-1.25-5.77 1.202l-12.862 12.862 4.568 4.568 12.862-12.862c2.452-2.452 2.597-4.376 1.202-5.77z" stroke="#9013FE"/><path d="M0 72.493l5.212-26.06 29.833-5.966-1.028 5.142-25.03 5.006-1.07 5.35 23.296-4.658-1.008 5.038L6.91 61.004 4.804 71.532 0 72.492zm34.276-6.855l5.212-26.06 30.99-6.198-.995 4.97-26.185 5.236-1.077 5.386 24.921-4.984-.973 4.864-24.921 4.984-1.175 5.872 26.547-5.31-.994 4.97-31.35 6.27zm43.671-26.613c-.375 1.876 2.213 1.592 11.986.405 11.868-1.44 17.44-1.387 16.266 4.485-.987 4.934-6.633 9.065-18.335 11.405-10.619 2.124-16.178.1-18.32-1.673l3.237-4.05c2.635 1.041 7.226 2.358 16.472.509 7.55-1.51 11.718-3.11 12.093-4.987.376-1.876-2.02-2.03-12.574-.754-12.187 1.47-16.697 1.138-15.613-4.282 1.105-5.525 8.309-9.3 17.916-11.222 8.019-1.604 13.84-1.067 17.203 1.362l-3.23 4.015c-3.642-1.206-8.355-1.564-14.893-.257-6.284 1.257-11.798 2.994-12.208 5.044zm66.995-15.634l-14.916 2.983-4.191 20.952-4.803.96 4.19-20.951-14.917 2.983 1.022-5.107 34.637-6.928-1.022 5.108zm-.108 20.135l5.212-26.06 4.803-.96-5.212 26.059-4.803.96zm29.364-5.873l-4.334.867-11.468-21.89.173-.868 5.418-1.084 9.093 18.162 17.418-23.464 5.417-1.083-.173.868-21.544 28.492zm33.022-31.62l4.479-.897 12.118 21.76-.174.868-5.382 1.077-3.087-5.887-19.143 3.828-5.797 7.664-5.382 1.076.174-.868L207.22 6.032zm5.654 12.644l-4.373-8.298-8.196 10.812 12.569-2.514zm14.489 8.343L232.575.96l4.804-.96-4.19 20.952 23.946-4.79-1.022 5.108-28.75 5.75z" transform="matrix(.83205 -.5547 .83205 .5547 -115.95 374.889)" stroke="#9013FE"/><path fill-rule="evenodd" d="M94.776 414.784l-18.032-18.031 3.198-3.198 14.497 14.497 15.94-15.94 3.534 3.535-19.137 19.137zm21.805-21.806l-18.03-18.03 3.197-3.198 18.031 18.03-3.198 3.198zm26.542-26.541l-30.58 1.827 14.376 14.377-3.197 3.197-18.031-18.031 4.207-4.207 30.629-1.78-14.425-14.424 3.197-3.198 18.032 18.031-4.208 4.208zm8.15-8.15l-18.03-18.032 20.627-20.627 3.438 3.438-17.43 17.43 3.726 3.726 16.589-16.588 3.366 3.365-16.589 16.589 4.063 4.063 17.671-17.67 3.438 3.437-20.868 20.868zm34.596-52.483l-9.111-9.064 3.22-3.222 9.234 9.232c5.914 5.914 4.856 13.32-2.26 20.436-7.093 7.092-14.57 8.222-20.484 2.307l-9.232-9.232 3.197-3.197 9.088 9.088c3.75 3.75 8.583 2.428 13.704-2.693 5.12-5.12 6.395-9.905 2.644-13.655zm15.917 1.97l-18.032-18.03 15.363-15.363c5.073-5.073 9.472-5.29 13.175-1.587 3.702 3.702 3.486 8.102-1.587 13.175l-12.165 12.165 6.443 6.443-3.197 3.197zm7.308-31.782c-1.395-1.395-3.317-1.25-5.77 1.202l-12.863 12.862 4.569 4.568 12.862-12.862c2.452-2.453 2.596-4.376 1.202-5.77z" fill="#9013FE"/><path d="M41.492 41.228l-5.311 26.558-4.803.96 2.252-11.26L7.054 62.8 4.802 74.06 0 75.02l5.311-26.556 4.803-.961L8.103 57.56l26.575-5.315L36.69 42.19l4.802-.96zm21.303 11.513L60.77 62.868l-4.694.939L58.1 53.68 44.89 41.399l.177-.885 6.428-1.286 9.854 9.485 14.627-14.381 6.427-1.286-.177.886-19.43 18.809zm17.87 6.148l5.312-26.558 23.073-4.614c7.619-1.524 10.47.863 9.379 6.316-1.091 5.454-5.173 9.227-12.792 10.751l-18.27 3.654-1.899 9.49-4.802.96zm32.962-23.895c.41-2.054-.88-3.053-4.563-2.317l-19.318 3.864-1.346 6.728 19.318-3.864c3.683-.736 5.498-2.357 5.909-4.411zm5.639 16.175l5.311-26.558 30.981-6.196-1.012 5.064-26.179 5.235-1.098 5.489 24.915-4.983-.991 4.957-24.915 4.983-1.197 5.985 26.54-5.308-1.013 5.063-31.342 6.269zm43.131-18.417l-2.04 10.198-4.802.96 5.311-26.556 24.518-4.904c6.716-1.343 10.149.384 9.009 6.085-1.006 5.028-4.652 7.83-10.29 9.332l5.968 8.29-.177.886-5.633 1.127-5.796-8.631-16.068 3.213zm27.186-13.221c.375-1.877-.792-2.8-4.186-2.12l-20.762 4.152-1.233 6.161 20.763-4.152c3.394-.679 5.043-2.165 5.418-4.041zM236.91 2.145l-5.311 26.557-4.803.96 2.252-11.26-26.575 5.315-2.253 11.26-4.802.961 5.312-26.557 4.802-.96-2.011 10.056 26.575-5.315 2.012-10.057 4.802-.96zm.61 25.373L242.832.96l4.802-.96-5.311 26.557-4.803.96z" transform="matrix(.83205 -.5547 .83205 .5547 182 372.363)" stroke="#9013FE"/><path fill-rule="evenodd" d="M395.064 413.799l-18.031-18.031 19.858-19.859 3.558 3.558-16.66 16.661 3.702 3.703 15.506-15.507 3.486 3.486-15.506 15.507 7.284 7.284-3.197 3.198zm22.815-22.816l-18.03-18.03 20.627-20.629 3.438 3.438-17.43 17.43 3.726 3.727 16.589-16.589 3.366 3.366-16.59 16.589 4.064 4.063 17.67-17.67 3.438 3.437-20.868 20.868zm13.704-39.476c1.298 1.298 3.222-.289 10.386-6.347 8.703-7.357 13.415-10.386 17.478-6.323 3.414 3.414 2.236 8.92-5.553 16.709-7.069 7.068-13.464 8.943-16.781 9.088l-.77-4.136c3.102-.841 8.078-2.596 14.233-8.75 5.025-5.025 7.14-8.247 5.842-9.545-1.298-1.299-3.438-.072-11.18 6.467-8.943 7.549-13.006 9.833-16.756 6.082-3.823-3.822-1.034-9.977 5.36-16.372 5.338-5.337 10.675-8.222 15.58-8.655l.745 4.111c-4.087 1.299-8.342 3.679-12.694 8.03-4.183 4.183-7.308 8.222-5.89 9.64zm42.674-45.896l-9.93 9.93 14.498 14.497-3.198 3.197-14.497-14.497-9.929 9.93-3.534-3.535 23.056-23.056 3.534 3.534zm17.214 11.78l-18.032-18.03 3.198-3.198 18.031 18.031-3.197 3.198zm19.545-19.545l-2.885 2.885-28.417-6.443-.6-.601 3.605-3.607 23.225 5.578-5.578-23.224 3.606-3.606.601.6 6.443 28.418zm.481-36.543l2.982-2.981 28.85 6.01.6.601-3.582 3.582-7.645-1.73-12.742 12.741 1.731 7.646-3.582 3.582-.601-.601-6.01-28.85zm15.603 4.255l-10.794-2.428 2.428 10.794 8.366-8.366zm19.306-3.101l-18.031-18.032 3.197-3.197 14.497 14.497 15.94-15.94 3.534 3.534-19.137 19.138z" fill="#9013FE"/><path d="M544.775 412.784l-18.031-18.031 3.198-3.198 14.497 14.498 15.94-15.94 3.533 3.534-19.137 19.137zm21.806-21.805l-18.031-18.032 3.197-3.197 18.032 18.031-3.198 3.198zm26.542-26.542l-30.581 1.827 14.377 14.377-3.198 3.197-18.03-18.03 4.206-4.208 30.63-1.78-14.425-14.424 3.197-3.198 18.031 18.032-4.207 4.207zm8.15-8.15l-18.031-18.032 20.628-20.627 3.438 3.438-17.43 17.43 3.726 3.726 16.589-16.589 3.365 3.366-16.588 16.59 4.063 4.062 17.67-17.67 3.438 3.437-20.868 20.869zm34.596-52.483l-9.112-9.064 3.222-3.222 9.232 9.232c5.914 5.915 4.856 13.32-2.26 20.436-7.092 7.092-14.57 8.222-20.484 2.308l-9.232-9.232 3.198-3.198 9.088 9.088c3.75 3.75 8.583 2.428 13.703-2.693 5.121-5.12 6.396-9.905 2.645-13.655zm15.916 1.97l-18.032-18.03 15.363-15.363c5.073-5.073 9.472-5.29 13.175-1.587 3.702 3.703 3.486 8.102-1.587 13.175l-12.165 12.165 6.443 6.443-3.197 3.198zm7.308-31.782c-1.394-1.395-3.318-1.25-5.77 1.202l-12.862 12.862 4.568 4.568 12.862-12.862c2.452-2.452 2.597-4.376 1.202-5.77z" stroke="#9013FE"/><path fill-rule="evenodd" d="M700.828 373.217l17.677 17.677-3.196 3.197-7.496-7.495-17.69 17.69 7.496 7.495-3.197 3.197-17.678-17.678 3.197-3.197 6.694 6.694 17.69-17.69-6.694-6.694 3.197-3.196zm27.304-5.431l6.741 6.74-3.124 3.125-6.741-6.74-21.212.516-.589-.59 4.278-4.278 16.092-.204.204-16.092 4.278-4.278.59.59-.517 21.21zm19.985-6.503l-17.678-17.677 15.358-15.359c5.072-5.071 9.43-5.328 13.06-1.698 3.63 3.63 3.373 7.987-1.699 13.059l-12.161 12.162 6.316 6.317-3.196 3.196zm7.543-31.538c-1.367-1.366-3.272-1.205-5.724 1.246l-12.859 12.86 4.478 4.478 12.86-12.86c2.45-2.45 2.612-4.357 1.245-5.724zm18.15 5.844l-17.678-17.677 20.623-20.622 3.37 3.37-17.425 17.426 3.653 3.653 16.585-16.584 3.3 3.3-16.585 16.584 3.984 3.983 17.666-17.666 3.37 3.37-20.862 20.863zm20.565-34.14l6.787 6.788-3.196 3.197-17.678-17.677 16.32-16.32c4.47-4.471 8.764-5.417 12.559-1.623 3.347 3.347 2.645 6.925-.797 10.885l11.864 1.288.59.59-3.75 3.75-12.004-1.573-10.695 10.695zm11.619-22.414c-1.25-1.25-2.988-1.113-5.248 1.146L786.926 294l4.101 4.101 13.82-13.82c2.26-2.26 2.396-3.998 1.147-5.247zm24.912-35.896l17.678 17.677-3.197 3.197-7.495-7.495-17.69 17.69 7.495 7.495-3.196 3.196-17.678-17.677 3.197-3.197 6.694 6.694 17.69-17.69-6.694-6.694 3.196-3.196zm21.62 13.736l-17.678-17.678 3.197-3.197 17.678 17.678-3.198 3.197z" fill="#9013FE"/><path d="M0 72.493l5.212-26.06 29.833-5.966-1.028 5.142-25.03 5.006-1.07 5.35 23.296-4.658-1.008 5.038L6.91 61.004 4.804 71.532 0 72.492zm34.276-6.855l5.212-26.06 30.99-6.198-.995 4.97-26.185 5.236-1.077 5.386 24.921-4.985-.973 4.865-24.921 4.984-1.175 5.872 26.547-5.31-.994 4.97-31.35 6.27zm43.671-26.613c-.375 1.876 2.213 1.592 11.986.404 11.868-1.44 17.44-1.386 16.266 4.486-.987 4.934-6.633 9.065-18.335 11.405-10.619 2.124-16.178.1-18.32-1.673l3.237-4.05c2.635 1.041 7.226 2.358 16.472.509 7.55-1.51 11.718-3.11 12.093-4.987.376-1.877-2.02-2.031-12.574-.754-12.187 1.47-16.697 1.138-15.613-4.282 1.105-5.525 8.309-9.3 17.916-11.222 8.019-1.604 13.84-1.067 17.203 1.362l-3.23 4.015c-3.642-1.206-8.355-1.564-14.893-.257-6.284 1.257-11.798 2.994-12.208 5.044zm66.995-15.634l-14.916 2.983-4.191 20.952-4.803.96 4.19-20.951-14.917 2.983 1.022-5.107 34.637-6.928-1.022 5.108zm-.108 20.135l5.212-26.06 4.803-.96-5.212 26.059-4.803.96zm29.364-5.873l-4.334.867-11.468-21.89.173-.868 5.418-1.084 9.093 18.162 17.418-23.464 5.417-1.083-.173.868-21.544 28.492zm33.022-31.62l4.479-.897 12.118 21.76-.174.868-5.382 1.077-3.087-5.887-19.143 3.828-5.797 7.664-5.382 1.076.174-.868L207.22 6.032zm5.654 12.644l-4.373-8.298-8.196 10.812 12.569-2.514zm14.489 8.343L232.575.96l4.804-.96-4.19 20.952 23.946-4.79-1.022 5.108-28.75 5.75z" transform="matrix(.83205 -.5547 .83205 .5547 784.053 374.889)" stroke="#9013FE"/><path d="M41.492 41.228l-5.311 26.558-4.803.96 2.252-11.26L7.054 62.8 4.802 74.06 0 75.02l5.311-26.556 4.803-.961L8.103 57.56l26.575-5.315L36.69 42.19l4.802-.96zm21.303 11.513L60.77 62.868l-4.694.939L58.1 53.68 44.89 41.399l.177-.885 6.428-1.286 9.854 9.485 14.627-14.381 6.427-1.286-.177.886-19.43 18.809zm17.87 6.148l5.312-26.558 23.073-4.614c7.619-1.524 10.47.863 9.379 6.316-1.091 5.454-5.173 9.227-12.792 10.751l-18.27 3.654-1.899 9.49-4.802.96zm32.962-23.895c.41-2.054-.88-3.053-4.563-2.317l-19.318 3.864-1.346 6.728 19.318-3.864c3.683-.736 5.498-2.357 5.909-4.411zm5.639 16.175l5.311-26.558 30.981-6.196-1.012 5.064-26.179 5.235-1.098 5.489 24.915-4.983-.991 4.957-24.915 4.983-1.197 5.985 26.54-5.308-1.013 5.063-31.342 6.269zm43.131-18.417l-2.04 10.198-4.802.96 5.311-26.556 24.518-4.904c6.716-1.343 10.149.384 9.009 6.085-1.006 5.028-4.652 7.83-10.29 9.332l5.968 8.29-.177.886-5.633 1.127-5.796-8.631-16.068 3.213zm27.186-13.221c.375-1.877-.792-2.8-4.186-2.12l-20.762 4.152-1.233 6.161 20.763-4.152c3.394-.679 5.043-2.165 5.418-4.041zM236.91 2.145l-5.311 26.557-4.803.96 2.252-11.26-26.575 5.315-2.253 11.26-4.802.961 5.312-26.557 4.802-.96-2.011 10.056 26.575-5.315 2.012-10.057 4.802-.96zm.61 25.373L242.832.96l4.802-.96-5.311 26.557-4.803.96z" transform="matrix(.83205 -.5547 .83205 .5547 -43 597.363)" stroke="#9013FE"/><path fill-rule="evenodd" d="M170.064 638.799l-18.031-18.031 19.858-19.859 3.558 3.558-16.66 16.661 3.702 3.703 15.506-15.507 3.486 3.486-15.506 15.507 7.284 7.284-3.197 3.198zm22.815-22.816l-18.03-18.03 20.627-20.629 3.438 3.438-17.43 17.43 3.726 3.727 16.589-16.589 3.366 3.366-16.59 16.589 4.064 4.063 17.67-17.67 3.438 3.437-20.868 20.868zm13.704-39.476c1.298 1.298 3.222-.289 10.386-6.347 8.703-7.357 13.415-10.386 17.478-6.323 3.414 3.414 2.236 8.92-5.553 16.709-7.069 7.068-13.464 8.943-16.781 9.088l-.77-4.136c3.102-.841 8.078-2.596 14.233-8.75 5.025-5.025 7.14-8.247 5.842-9.545-1.298-1.299-3.438-.072-11.18 6.467-8.943 7.549-13.006 9.833-16.756 6.082-3.823-3.822-1.034-9.977 5.36-16.372 5.338-5.337 10.675-8.222 15.58-8.655l.745 4.111c-4.087 1.299-8.342 3.679-12.694 8.03-4.183 4.183-7.308 8.222-5.89 9.64zm42.674-45.896l-9.93 9.93 14.498 14.497-3.198 3.197-14.497-14.497-9.929 9.93-3.534-3.535 23.056-23.056 3.534 3.534zm17.214 11.78l-18.032-18.03 3.198-3.198 18.031 18.031-3.197 3.198zm19.545-19.545l-2.885 2.885-28.417-6.443-.6-.601 3.605-3.607 23.225 5.578-5.578-23.224 3.606-3.606.601.6 6.443 28.418zm.481-36.543l2.982-2.981 28.85 6.01.6.601-3.582 3.582-7.645-1.73-12.742 12.741 1.731 7.646-3.582 3.582-.601-.601-6.01-28.85zm15.603 4.255l-10.794-2.428 2.428 10.794 8.366-8.366zm19.306-3.101l-18.031-18.032 3.197-3.197 14.497 14.497 15.94-15.94 3.534 3.534-19.137 19.138z" fill="#9013FE"/><path d="M319.775 637.784l-18.031-18.031 3.198-3.198 14.497 14.498 15.94-15.94 3.533 3.534-19.137 19.137zm21.806-21.805l-18.031-18.032 3.197-3.197 18.032 18.031-3.198 3.198zm26.542-26.542l-30.581 1.827 14.377 14.377-3.198 3.197-18.03-18.03 4.206-4.208 30.63-1.78-14.425-14.424 3.197-3.198 18.031 18.032-4.207 4.207zm8.15-8.15l-18.031-18.032 20.628-20.627 3.438 3.438-17.43 17.43 3.726 3.726 16.589-16.589 3.365 3.366-16.588 16.59 4.063 4.062 17.67-17.67 3.438 3.437-20.868 20.869zm34.596-52.483l-9.112-9.064 3.222-3.222 9.232 9.232c5.914 5.915 4.856 13.32-2.26 20.436-7.092 7.092-14.57 8.222-20.484 2.308l-9.232-9.232 3.198-3.198 9.088 9.088c3.75 3.75 8.583 2.428 13.703-2.693 5.121-5.12 6.396-9.905 2.645-13.655zm15.916 1.97l-18.032-18.03 15.363-15.363c5.073-5.073 9.472-5.29 13.175-1.587 3.702 3.703 3.486 8.102-1.587 13.175l-12.165 12.165 6.443 6.443-3.197 3.198zm7.308-31.782c-1.394-1.395-3.318-1.25-5.77 1.202l-12.862 12.862 4.568 4.568 12.862-12.862c2.452-2.452 2.597-4.376 1.202-5.77z" stroke="#9013FE"/><path fill-rule="evenodd" d="M475.828 598.217l17.677 17.677-3.196 3.197-7.496-7.495-17.69 17.69 7.496 7.495-3.197 3.197-17.678-17.678 3.197-3.197 6.694 6.694 17.69-17.69-6.694-6.694 3.197-3.196zm27.304-5.431l6.741 6.74-3.124 3.125-6.741-6.74-21.212.516-.589-.59 4.278-4.278 16.092-.204.204-16.092 4.278-4.278.59.59-.517 21.21zm19.985-6.503l-17.678-17.677 15.358-15.359c5.072-5.071 9.43-5.328 13.06-1.698 3.63 3.63 3.373 7.987-1.699 13.059l-12.161 12.162 6.316 6.317-3.196 3.196zm7.543-31.538c-1.367-1.366-3.272-1.205-5.724 1.246l-12.859 12.86 4.478 4.478 12.86-12.86c2.45-2.45 2.612-4.357 1.245-5.724zm18.15 5.844l-17.678-17.677 20.623-20.622 3.37 3.37-17.425 17.426 3.653 3.653 16.585-16.584 3.3 3.3-16.585 16.584 3.984 3.983 17.666-17.666 3.37 3.37-20.862 20.863zm20.565-34.14l6.787 6.788-3.196 3.197-17.678-17.677 16.32-16.32c4.47-4.471 8.764-5.417 12.559-1.623 3.347 3.347 2.645 6.925-.797 10.885l11.864 1.288.59.59-3.75 3.75-12.004-1.573-10.695 10.695zm11.619-22.414c-1.25-1.25-2.988-1.113-5.248 1.146L561.926 519l4.101 4.101 13.82-13.82c2.26-2.26 2.396-3.998 1.147-5.247zm24.912-35.896l17.678 17.677-3.197 3.197-7.495-7.495-17.69 17.69 7.495 7.495-3.196 3.196-17.678-17.677 3.197-3.197 6.694 6.694 17.69-17.69-6.694-6.694 3.196-3.196zm21.62 13.736l-17.678-17.678 3.197-3.197 17.678 17.678-3.198 3.197z" fill="#9013FE"/><path d="M0 72.493l5.212-26.06 29.833-5.966-1.028 5.142-25.03 5.006-1.07 5.35 23.296-4.658-1.008 5.038L6.91 61.004 4.804 71.532 0 72.492zm34.276-6.855l5.212-26.06 30.99-6.198-.995 4.97-26.185 5.236-1.077 5.386 24.921-4.985-.973 4.865-24.921 4.984-1.175 5.872 26.547-5.31-.994 4.97-31.35 6.27zm43.671-26.613c-.375 1.876 2.213 1.592 11.986.404 11.868-1.44 17.44-1.386 16.266 4.486-.987 4.934-6.633 9.065-18.335 11.405-10.619 2.124-16.178.1-18.32-1.673l3.237-4.05c2.635 1.041 7.226 2.358 16.472.509 7.55-1.51 11.718-3.11 12.093-4.987.376-1.877-2.02-2.031-12.574-.754-12.187 1.47-16.697 1.138-15.613-4.282 1.105-5.525 8.309-9.3 17.916-11.222 8.019-1.604 13.84-1.067 17.203 1.362l-3.23 4.015c-3.642-1.206-8.355-1.564-14.893-.257-6.284 1.257-11.798 2.994-12.208 5.044zm66.995-15.634l-14.916 2.983-4.191 20.952-4.803.96 4.19-20.951-14.917 2.983 1.022-5.107 34.637-6.928-1.022 5.108zm-.108 20.135l5.212-26.06 4.803-.96-5.212 26.059-4.803.96zm29.364-5.873l-4.334.867-11.468-21.89.173-.868 5.418-1.084 9.093 18.162 17.418-23.464 5.417-1.083-.173.868-21.544 28.492zm33.022-31.62l4.479-.897 12.118 21.76-.174.868-5.382 1.077-3.087-5.887-19.143 3.828-5.797 7.664-5.382 1.076.174-.868L207.22 6.032zm5.654 12.644l-4.373-8.298-8.196 10.812 12.569-2.514zm14.489 8.343L232.575.96l4.804-.96-4.19 20.952 23.946-4.79-1.022 5.108-28.75 5.75z" transform="matrix(.83205 -.5547 .83205 .5547 559.05 599.888)" stroke="#9013FE"/><path fill-rule="evenodd" d="M769.775 639.784l-18.031-18.031 3.197-3.198 14.498 14.497 15.94-15.94 3.533 3.535-19.137 19.137zm21.806-21.806l-18.031-18.03 3.197-3.198 18.032 18.03-3.198 3.198zm26.542-26.541l-30.58 1.827 14.376 14.377-3.197 3.197-18.032-18.031 4.207-4.207 30.63-1.78-14.425-14.424 3.197-3.198 18.031 18.031-4.207 4.208zm8.15-8.15l-18.031-18.032 20.628-20.628 3.438 3.438-17.43 17.43 3.726 3.727 16.589-16.59 3.366 3.367-16.59 16.588 4.064 4.064 17.67-17.671 3.438 3.438-20.868 20.868zm34.596-52.483l-9.111-9.064 3.22-3.222 9.233 9.232c5.915 5.914 4.856 13.32-2.26 20.436-7.092 7.092-14.57 8.222-20.483 2.308l-9.232-9.233 3.197-3.197 9.088 9.088c3.75 3.75 8.583 2.428 13.704-2.693 5.12-5.12 6.394-9.905 2.644-13.655zm15.915 1.971l-18.03-18.031 15.363-15.363c5.072-5.073 9.471-5.29 13.174-1.587 3.702 3.703 3.486 8.102-1.587 13.175l-12.165 12.165 6.443 6.443-3.198 3.198zm7.31-31.783c-1.395-1.395-3.319-1.25-5.77 1.202l-12.863 12.862 4.568 4.568 12.863-12.862c2.452-2.453 2.596-4.376 1.201-5.77zm-939.03 362.807l-18.031-18.031 19.858-19.859 3.558 3.558-16.66 16.661 3.702 3.703 15.507-15.507 3.486 3.486-15.507 15.507 7.284 7.284-3.197 3.198zm22.815-22.816l-18.03-18.03 20.627-20.629 3.438 3.438-17.43 17.43 3.726 3.727 16.59-16.589 3.366 3.366-16.59 16.589 4.064 4.063 17.67-17.67 3.439 3.437-20.869 20.868zm13.704-39.476c1.298 1.298 3.222-.289 10.386-6.347 8.703-7.357 13.415-10.386 17.478-6.323 3.414 3.414 2.236 8.92-5.553 16.709-7.069 7.068-13.464 8.943-16.781 9.088l-.77-4.136c3.102-.841 8.078-2.596 14.233-8.75 5.025-5.025 7.14-8.247 5.842-9.545-1.298-1.299-3.438-.072-11.18 6.467-8.943 7.549-13.006 9.833-16.756 6.082-3.823-3.822-1.034-9.977 5.361-16.372 5.337-5.337 10.674-8.222 15.579-8.655l.745 4.111c-4.087 1.299-8.342 3.679-12.694 8.03-4.183 4.183-7.308 8.222-5.89 9.64zm42.674-45.896l-9.93 9.93 14.498 14.497-3.198 3.197-14.497-14.497-9.929 9.93-3.534-3.535 23.056-23.056 3.534 3.534zm17.214 11.78l-18.032-18.03 3.198-3.198 18.031 18.031-3.197 3.198zm19.545-19.545l-2.885 2.885-28.417-6.443-.6-.601 3.605-3.607 23.225 5.578-5.578-23.224 3.606-3.606.601.6 6.443 28.418zm.482-36.543l2.98-2.981 28.85 6.01.602.601-3.582 3.582-7.646-1.73-12.742 12.741 1.731 7.646-3.582 3.582-.601-.601-6.01-28.85zm15.602 4.255l-10.794-2.428 2.428 10.794 8.366-8.366zm19.306-3.101l-18.031-18.032 3.197-3.197 14.497 14.497 15.94-15.94 3.534 3.534-19.137 19.138z" fill="#9013FE"/><path d="M94.775 862.784l-18.03-18.031 3.197-3.198 14.497 14.498 15.94-15.94 3.533 3.534-19.137 19.137zm21.806-21.805L98.55 822.947l3.197-3.197 18.032 18.031-3.198 3.198zm26.542-26.542l-30.58 1.827 14.376 14.377-3.197 3.197-18.032-18.03 4.208-4.208 30.629-1.78-14.425-14.424 3.197-3.198 18.031 18.032-4.207 4.207zm8.15-8.15l-18.031-18.032 20.628-20.627 3.438 3.438-17.43 17.43 3.726 3.726 16.589-16.589 3.366 3.366-16.59 16.59 4.064 4.062 17.67-17.67 3.438 3.437-20.868 20.869zm34.596-52.483l-9.112-9.064 3.222-3.222 9.232 9.232c5.914 5.915 4.856 13.32-2.26 20.436-7.092 7.092-14.57 8.222-20.483 2.308l-9.232-9.232 3.197-3.198 9.088 9.088c3.75 3.75 8.583 2.428 13.704-2.693 5.12-5.12 6.395-9.905 2.644-13.655zm15.916 1.97l-18.032-18.03 15.363-15.363c5.073-5.073 9.472-5.29 13.175-1.587 3.702 3.703 3.486 8.102-1.587 13.175l-12.165 12.165 6.443 6.443-3.197 3.198zm7.308-31.782c-1.394-1.395-3.317-1.25-5.77 1.202l-12.862 12.862 4.568 4.568 12.862-12.862c2.452-2.452 2.597-4.376 1.202-5.77z" stroke="#9013FE"/><path fill-rule="evenodd" d="M250.828 823.217l17.677 17.677-3.196 3.197-7.496-7.495-17.69 17.69 7.496 7.495-3.197 3.197-17.678-17.678 3.197-3.197 6.694 6.694 17.69-17.69-6.694-6.694 3.197-3.196zm27.304-5.431l6.741 6.74-3.124 3.125-6.741-6.74-21.212.516-.589-.59 4.278-4.278 16.092-.204.204-16.092 4.278-4.278.59.59-.517 21.21zm19.985-6.503l-17.678-17.677 15.358-15.359c5.072-5.071 9.43-5.328 13.06-1.698 3.63 3.63 3.373 7.987-1.699 13.059l-12.161 12.162 6.316 6.317-3.196 3.196zm7.543-31.538c-1.367-1.366-3.272-1.205-5.724 1.246l-12.859 12.86 4.478 4.478 12.86-12.86c2.45-2.45 2.612-4.357 1.245-5.724zm18.15 5.844l-17.678-17.677 20.623-20.622 3.37 3.37-17.425 17.426 3.653 3.653 16.585-16.584 3.3 3.3-16.585 16.584 3.984 3.983 17.666-17.666 3.37 3.37-20.862 20.863zm20.564-34.14l6.788 6.788-3.196 3.197-17.678-17.678 16.32-16.32c4.47-4.47 8.764-5.416 12.559-1.622 3.347 3.347 2.645 6.925-.797 10.885l11.864 1.288.59.59-3.75 3.749-12.004-1.572-10.696 10.695zm11.62-22.414c-1.25-1.25-2.988-1.113-5.248 1.146L336.926 744l4.101 4.101 13.82-13.82c2.26-2.26 2.396-3.998 1.147-5.247zm24.912-35.896l17.678 17.677-3.197 3.197-7.495-7.495-17.69 17.69 7.495 7.495-3.196 3.196-17.678-17.677 3.197-3.197 6.694 6.694 17.69-17.69-6.694-6.694 3.196-3.196zm21.62 13.736l-17.678-17.678 3.197-3.197 17.678 17.678-3.198 3.197z" fill="#9013FE"/><path d="M0 72.493l5.212-26.06 29.833-5.966-1.028 5.142-25.03 5.006-1.07 5.35 23.296-4.658-1.008 5.038L6.91 61.004 4.804 71.532 0 72.492zm34.276-6.855l5.212-26.06 30.99-6.198-.995 4.97-26.185 5.236-1.077 5.386 24.921-4.985-.973 4.865-24.921 4.984-1.175 5.872 26.547-5.31-.994 4.97-31.35 6.27zm43.671-26.613c-.375 1.876 2.213 1.592 11.986.404 11.868-1.44 17.44-1.386 16.266 4.486-.987 4.934-6.633 9.065-18.335 11.405-10.619 2.124-16.178.1-18.32-1.673l3.237-4.05c2.635 1.041 7.226 2.358 16.472.509 7.55-1.51 11.718-3.11 12.093-4.987.376-1.877-2.02-2.031-12.574-.754-12.187 1.47-16.697 1.138-15.613-4.282 1.105-5.525 8.309-9.3 17.916-11.222 8.019-1.604 13.84-1.067 17.203 1.362l-3.23 4.015c-3.642-1.206-8.355-1.564-14.893-.257-6.284 1.257-11.798 2.994-12.208 5.044zm66.995-15.634l-14.916 2.983-4.191 20.952-4.803.96 4.19-20.951-14.917 2.983 1.022-5.107 34.637-6.928-1.022 5.108zm-.108 20.135l5.212-26.06 4.803-.96-5.212 26.059-4.803.96zm29.364-5.873l-4.334.867-11.468-21.89.173-.868 5.418-1.084 9.093 18.162 17.418-23.464 5.417-1.083-.173.868-21.544 28.492zm33.022-31.62l4.479-.897 12.118 21.76-.174.868-5.382 1.077-3.087-5.887-19.143 3.828-5.797 7.664-5.382 1.076.174-.868L207.22 6.032zm5.654 12.644l-4.373-8.298-8.196 10.812 12.569-2.514zm14.489 8.343L232.575.96l4.804-.96-4.19 20.952 23.946-4.79-1.022 5.108-28.75 5.75z" transform="matrix(.83205 -.5547 .83205 .5547 334.051 824.886)" stroke="#9013FE"/><path fill-rule="evenodd" d="M544.775 864.784l-18.031-18.031 3.197-3.198 14.498 14.497 15.94-15.94 3.533 3.535-19.137 19.137zm21.806-21.806l-18.031-18.03 3.197-3.198 18.032 18.03-3.198 3.198zm26.542-26.541l-30.58 1.827 14.376 14.377-3.197 3.197-18.032-18.031 4.207-4.207 30.63-1.78-14.425-14.424 3.197-3.198 18.031 18.031-4.207 4.208zm8.15-8.15l-18.031-18.032 20.628-20.627 3.438 3.438-17.43 17.43 3.726 3.726 16.588-16.588 3.366 3.365-16.588 16.589 4.063 4.063 17.67-17.67 3.439 3.437-20.869 20.868zm34.596-52.483l-9.111-9.064 3.22-3.222 9.233 9.232c5.915 5.914 4.856 13.32-2.26 20.436-7.093 7.092-14.57 8.222-20.483 2.308l-9.232-9.233 3.197-3.197 9.088 9.088c3.75 3.75 8.583 2.428 13.704-2.693 5.12-5.12 6.394-9.905 2.644-13.655zm15.915 1.971l-18.03-18.031 15.363-15.363c5.072-5.073 9.471-5.29 13.174-1.587 3.702 3.703 3.486 8.102-1.587 13.175l-12.165 12.165 6.443 6.443-3.198 3.198zm7.31-31.783c-1.395-1.394-3.318-1.25-5.77 1.202l-12.863 12.862 4.568 4.569 12.863-12.863c2.452-2.452 2.596-4.376 1.202-5.77z" fill="#9013FE"/><path d="M41.492 41.228l-5.311 26.558-4.803.96 2.252-11.26L7.054 62.8 4.802 74.06 0 75.02l5.311-26.556 4.803-.961L8.103 57.56l26.575-5.315L36.69 42.19l4.802-.96zm21.303 11.513L60.77 62.868l-4.694.939L58.1 53.68 44.89 41.399l.177-.885 6.428-1.286 9.854 9.485 14.627-14.381 6.427-1.286-.177.886-19.43 18.809zm17.87 6.148l5.312-26.558 23.073-4.614c7.619-1.524 10.47.863 9.379 6.316-1.091 5.454-5.173 9.227-12.792 10.751l-18.27 3.654-1.899 9.49-4.802.96zm32.962-23.895c.41-2.054-.88-3.053-4.563-2.317l-19.318 3.864-1.346 6.728 19.318-3.864c3.683-.736 5.498-2.357 5.909-4.411zm5.639 16.175l5.311-26.558 30.981-6.196-1.012 5.064-26.179 5.235-1.098 5.489 24.915-4.983-.991 4.957-24.915 4.983-1.197 5.985 26.54-5.308-1.013 5.063-31.342 6.269zm43.131-18.417l-2.04 10.198-4.802.96 5.311-26.556 24.518-4.904c6.716-1.343 10.149.384 9.009 6.085-1.006 5.028-4.652 7.83-10.29 9.332l5.968 8.29-.177.886-5.633 1.127-5.796-8.631-16.068 3.213zm27.186-13.221c.375-1.877-.792-2.8-4.186-2.12l-20.762 4.152-1.233 6.161 20.763-4.152c3.394-.68 5.043-2.165 5.418-4.041zM236.91 2.145l-5.311 26.557-4.803.96 2.252-11.26-26.575 5.315-2.253 11.26-4.802.961 5.312-26.557 4.802-.96-2.011 10.056 26.575-5.315 2.012-10.057 4.802-.96zm.61 25.373L242.832.96l4.802-.96-5.311 26.557-4.803.96z" transform="matrix(.83205 -.5547 .83205 .5547 632 822.363)" stroke="#9013FE"/><path fill-rule="evenodd" d="M845.064 863.799l-18.031-18.031 19.858-19.859 3.558 3.558-16.66 16.661 3.702 3.703 15.506-15.507 3.486 3.486-15.506 15.507 7.284 7.284-3.197 3.198zm22.815-22.816l-18.031-18.03 20.628-20.629 3.438 3.438-17.43 17.43 3.726 3.727 16.589-16.589 3.366 3.366-16.59 16.589 4.064 4.063 17.67-17.67 3.438 3.437-20.868 20.868zm13.704-39.476c1.298 1.298 3.222-.289 10.386-6.347 8.703-7.357 13.415-10.386 17.478-6.323 3.414 3.414 2.236 8.92-5.553 16.709-7.069 7.068-13.464 8.943-16.781 9.088l-.77-4.136c3.102-.841 8.078-2.596 14.233-8.75 5.025-5.025 7.14-8.247 5.842-9.545-1.298-1.299-3.438-.072-11.18 6.467-8.943 7.549-13.006 9.833-16.756 6.082-3.823-3.822-1.034-9.977 5.36-16.372 5.338-5.337 10.675-8.222 15.58-8.655l.745 4.111c-4.087 1.299-8.342 3.679-12.694 8.03-4.183 4.183-7.308 8.222-5.89 9.64zm42.674-45.896l-9.93 9.93 14.498 14.497-3.198 3.197-14.497-14.497-9.929 9.93-3.534-3.535 23.056-23.056 3.534 3.534zm17.214 11.78l-18.032-18.03 3.198-3.198 18.031 18.031-3.197 3.198zm19.545-19.545l-2.885 2.885-28.417-6.443-.6-.601 3.605-3.607 23.225 5.578-5.578-23.224 3.606-3.606.601.6 6.443 28.418zm.481-36.543l2.982-2.981 28.85 6.01.6.601-3.582 3.582-7.645-1.73-12.742 12.741 1.731 7.646-3.582 3.582-.601-.601-6.01-28.85zm15.603 4.255l-10.794-2.428 2.428 10.794 8.366-8.366zm19.306-3.101l-18.032-18.032 3.198-3.197 14.497 14.497 15.94-15.94 3.534 3.534-19.137 19.138z" fill="#9013FE"/></g><defs><clipPath id="clip0"><path fill="#fff" d="M0 0h900v900H0z"/></clipPath></defs></svg>